<?xml version="1.0" encoding="UTF-8" standalone="no"?>
<!-- Created with Inkscape (http://www.inkscape.org/) -->

<svg
   xmlns:dc="http://purl.org/dc/elements/1.1/"
   xmlns:cc="http://creativecommons.org/ns#"
   xmlns:rdf="http://www.w3.org/1999/02/22-rdf-syntax-ns#"
   xmlns:svg="http://www.w3.org/2000/svg"
   xmlns="http://www.w3.org/2000/svg"
   xmlns:sodipodi="http://sodipodi.sourceforge.net/DTD/sodipodi-0.dtd"
   xmlns:inkscape="http://www.inkscape.org/namespaces/inkscape"
   width="128mm"
   height="128mm"
   viewBox="0 0 128 128"
   version="1.1"
   id="svg8"
   inkscape:version="0.92.3 (2405546, 2018-03-11)"
   sodipodi:docname="icon.svg"
   inkscape:export-filename="D:\MyRepos\OnGithub\WildWatch\docs\icon.png"
   inkscape:export-xdpi="600.05743"
   inkscape:export-ydpi="600.05743">
  <defs
     id="defs2" />
  <sodipodi:namedview
     id="base"
     pagecolor="#ffffff"
     bordercolor="#666666"
     borderopacity="1.0"
     inkscape:pageopacity="0.0"
     inkscape:pageshadow="2"
     inkscape:zoom="0.35"
     inkscape:cx="-77.142857"
     inkscape:cy="560"
     inkscape:document-units="mm"
     inkscape:current-layer="layer1"
     showgrid="false"
     inkscape:window-width="1920"
     inkscape:window-height="1001"
     inkscape:window-x="-9"
     inkscape:window-y="-9"
     inkscape:window-maximized="1" />
  <metadata
     id="metadata5">
    <rdf:RDF>
      <cc:Work
         rdf:about="">
        <dc:format>image/svg+xml</dc:format>
        <dc:type
           rdf:resource="http://purl.org/dc/dcmitype/StillImage" />
        <dc:title></dc:title>
      </cc:Work>
    </rdf:RDF>
  </metadata>
  <g
     inkscape:label="Layer 1"
     inkscape:groupmode="layer"
     id="layer1"
     transform="translate(0,-169)">
    <g
       id="g229"
       transform="matrix(0.2468657,0,0,0.2468657,1.0583352,169.54643)"
       inkscape:export-xdpi="600.05743"
       inkscape:export-ydpi="600.05743">
      <path
         id="path99"
         d="m 337.582,205.396 v 8.44 c 0,20.165 -16.405,36.571 -36.571,36.571 h -6.083 c 8.995,-9.569 14.523,-22.433 14.523,-36.571 v -8.44 h -16.879 v 8.44 c 0,20.165 -16.405,36.571 -36.571,36.571 v 16.879 h 45.011 c 29.472,0 53.451,-23.979 53.451,-53.451 v -8.44 h -16.881 z"
         style="fill:#e86c16"
         inkscape:connector-curvature="0" />
      <polygon
         id="polygon101"
         points="512,309.484 512,377.8 444.484,411.558 478.242,309.484 "
         style="fill:#fe9528" />
      <rect
         id="rect103"
         height="102.074"
         width="347.24899"
         style="fill:#fec14d"
         y="309.48401"
         x="130.993" />
      <path
         id="path105"
         d="m 167.531,321.919 c -9.205,-16.125 -31.935,-29.313 -50.502,-29.313 H 83.27 l 81.988,84.384 33.758,0.011 z"
         style="fill:#e86c16"
         inkscape:connector-curvature="0" />
      <path
         id="path107"
         d="M 165.258,376.99 0,376.967 v -84.362 h 83.27 c 18.567,0 41.298,13.188 50.502,29.313 z"
         style="fill:#fd8300"
         inkscape:connector-curvature="0" />
      <g
         id="g119">
	<path
   id="path109"
   d="m 478.242,334.769 c -4.662,0 -8.44,3.779 -8.44,8.44 v 45.011 h 16.879 v -45.011 c 0,-4.661 -3.777,-8.44 -8.439,-8.44 z"
   style="fill:#7f9058"
   inkscape:connector-curvature="0" />

	<path
   id="path111"
   d="m 444.484,334.769 c -4.662,0 -8.44,3.779 -8.44,8.44 v 45.011 h 16.879 v -45.011 c 0,-4.661 -3.777,-8.44 -8.439,-8.44 z"
   style="fill:#7f9058"
   inkscape:connector-curvature="0" />

	<path
   id="path113"
   d="m 410.725,334.769 c -4.662,0 -8.44,3.779 -8.44,8.44 v 45.011 h 16.879 v -45.011 c 0.001,-4.661 -3.777,-8.44 -8.439,-8.44 z"
   style="fill:#7f9058"
   inkscape:connector-curvature="0" />

	<path
   id="path115"
   d="m 343.209,334.769 c -4.662,0 -8.44,3.779 -8.44,8.44 v 45.011 h 16.879 v -45.011 c 0,-4.661 -3.777,-8.44 -8.439,-8.44 z"
   style="fill:#7f9058"
   inkscape:connector-curvature="0" />

	<path
   id="path117"
   d="m 309.451,334.769 c -4.662,0 -8.44,3.779 -8.44,8.44 v 45.011 h 16.879 v -45.011 c 0,-4.661 -3.777,-8.44 -8.439,-8.44 z"
   style="fill:#7f9058"
   inkscape:connector-curvature="0" />

</g>
      <polygon
         id="polygon121"
         points="478.242,376.967 512,376.967 512,512 478.242,512 421.978,444.484 "
         style="fill:#fec14d" />
      <path
         id="path123"
         d="m 247.56,205.396 v 44.017 c -16.108,-3.821 -28.132,-18.317 -28.132,-35.578 v -8.44 h -16.879 v 8.44 c 0,14.138 5.527,27.002 14.523,36.571 h -6.083 c -20.166,0 -36.571,-16.407 -36.571,-36.571 v -8.44 h -16.879 v 8.44 c 0,29.472 23.978,53.451 53.451,53.451 h 36.571 v 115.22 h 16.879 v -177.11 z"
         style="fill:#fe9528"
         inkscape:connector-curvature="0" />
      <rect
         id="rect125"
         height="135.033"
         width="478.242"
         style="fill:#ffd686"
         y="376.96701"
         x="0" />
      <path
         id="path127"
         d="m 256,0 v 101.275 c 27.963,0 50.637,-22.674 50.637,-50.637 C 306.637,22.675 283.963,0 256,0 Z"
         style="fill:#ffa850"
         inkscape:connector-curvature="0" />
      <path
         id="path129"
         d="m 256,0 c 12.434,0 22.505,22.674 22.505,50.637 0,27.963 -10.071,50.638 -22.505,50.638 -27.963,0 -50.637,-22.674 -50.637,-50.637 C 205.363,22.675 228.037,0 256,0 Z"
         style="fill:#fecb69"
         inkscape:connector-curvature="0" />
      <path
         id="path131"
         d="m 368.527,180.01 h -33.758 c -0.034,-18.612 -15.135,-33.691 -33.758,-33.691 h -33.758 l 67.517,67.516 h 33.758 c 9.34,0 16.913,-7.573 16.913,-16.913 0,-9.34 -7.574,-16.912 -16.914,-16.912 z"
         style="fill:#7f9058"
         inkscape:connector-curvature="0" />
      <path
         id="path133"
         d="m 334.769,180.01 c 9.34,0 16.913,7.573 16.913,16.913 0,9.34 -7.573,16.913 -16.913,16.913 H 143.473 c -9.34,0 -16.913,-7.573 -16.913,-16.913 0,-9.34 7.573,-16.913 16.913,-16.913 h 33.758 c 0.034,-18.612 15.135,-33.691 33.758,-33.691 h 56.264 c 18.623,0 33.724,15.079 33.758,33.691 z"
         style="fill:#aac36d"
         inkscape:connector-curvature="0" />
      <g
         id="g149">
	<path
   id="path135"
   d="m 410.725,475.429 c -4.662,0 -8.44,-3.779 -8.44,-8.44 v -33.758 c 0,-4.661 3.778,-8.44 8.44,-8.44 4.662,0 8.44,3.779 8.44,8.44 v 33.758 c 0,4.661 -3.778,8.44 -8.44,8.44 z"
   style="fill:#7f9058"
   inkscape:connector-curvature="0" />

	<path
   id="path137"
   d="m 376.967,486.681 c -4.662,0 -8.44,-3.779 -8.44,-8.44 v -33.758 c 0,-4.661 3.778,-8.44 8.44,-8.44 4.662,0 8.44,3.779 8.44,8.44 v 33.758 c 0,4.662 -3.778,8.44 -8.44,8.44 z"
   style="fill:#7f9058"
   inkscape:connector-curvature="0" />

	<path
   id="path139"
   d="m 478.242,486.681 c -4.662,0 -8.44,-3.779 -8.44,-8.44 v -33.758 c 0,-4.661 3.778,-8.44 8.44,-8.44 4.662,0 8.44,3.779 8.44,8.44 v 33.758 c -0.001,4.662 -3.778,8.44 -8.44,8.44 z"
   style="fill:#7f9058"
   inkscape:connector-curvature="0" />

	<path
   id="path141"
   d="m 208.176,464.176 c -4.662,0 -8.44,-3.779 -8.44,-8.44 v -33.758 c 0,-4.661 3.778,-8.44 8.44,-8.44 4.662,0 8.44,3.779 8.44,8.44 v 33.758 c -0.001,4.661 -3.778,8.44 -8.44,8.44 z"
   style="fill:#7f9058"
   inkscape:connector-curvature="0" />

	<path
   id="path143"
   d="m 33.758,486.681 c -4.662,0 -8.44,-3.779 -8.44,-8.44 v -33.758 c 0,-4.661 3.778,-8.44 8.44,-8.44 4.662,0 8.44,3.779 8.44,8.44 v 33.758 c 0,4.662 -3.778,8.44 -8.44,8.44 z"
   style="fill:#7f9058"
   inkscape:connector-curvature="0" />

	<path
   id="path145"
   d="m 174.418,486.681 c -4.662,0 -8.44,-3.779 -8.44,-8.44 v -33.758 c 0,-4.661 3.778,-8.44 8.44,-8.44 4.662,0 8.44,3.779 8.44,8.44 v 33.758 c -0.001,4.662 -3.778,8.44 -8.44,8.44 z"
   style="fill:#7f9058"
   inkscape:connector-curvature="0" />

	<path
   id="path147"
   d="m 140.659,464.176 c -4.662,0 -8.44,-3.779 -8.44,-8.44 v -33.758 c 0,-4.661 3.778,-8.44 8.44,-8.44 4.662,0 8.44,3.779 8.44,8.44 v 33.758 c 0,4.661 -3.778,8.44 -8.44,8.44 z"
   style="fill:#7f9058"
   inkscape:connector-curvature="0" />

</g>
      <g
         id="g151">
</g>
      <g
         id="g153">
</g>
      <g
         id="g155">
</g>
      <g
         id="g157">
</g>
      <g
         id="g159">
</g>
      <g
         id="g161">
</g>
      <g
         id="g163">
</g>
      <g
         id="g165">
</g>
      <g
         id="g167">
</g>
      <g
         id="g169">
</g>
      <g
         id="g171">
</g>
      <g
         id="g173">
</g>
      <g
         id="g175">
</g>
      <g
         id="g177">
</g>
      <g
         id="g179">
</g>
    </g>
    <g
       id="g360"
       transform="matrix(0.06721171,0,0,0.06721171,96.195782,219.9603)"
       inkscape:export-xdpi="600.05743"
       inkscape:export-ydpi="600.05743">
	<g
   id="g306">
		<path
   id="path300"
   d="m 316.73,335.127 c 43.01,0 77.878,-34.867 77.878,-77.877 v -62.152 c 0,-28.842 19.65,-53.088 46.292,-60.1 -11.112,-22.113 -33.989,-37.297 -60.424,-37.297 -36.764,0 -66.651,29.354 -67.557,65.896 h -0.043 v 93.652 c 0,21.522 -17.448,38.969 -38.97,38.969 -13.067,0 -24.624,-6.438 -31.694,-16.307 9.706,31.956 39.391,55.216 74.518,55.216 z"
   style="fill:#ff9500"
   inkscape:connector-curvature="0" />

		<path
   id="path302"
   d="m 380.476,97.701 c -29.021,0 -53.743,18.297 -63.32,43.976 8.007,29.934 35.305,51.982 67.764,51.982 3.304,0 6.551,-0.246 9.733,-0.688 0.939,-27.9 20.264,-51.137 46.247,-57.975 -11.113,-22.111 -33.989,-37.295 -60.424,-37.295 z"
   style="fill:#d8d2c4"
   inkscape:connector-curvature="0" />

		<path
   id="path304"
   d="m 322.771,271.219 c -2.533,-8.639 -5.863,-16.939 -9.895,-24.822 v 10.853 c 0,21.522 -17.448,38.969 -38.97,38.969 -13.067,0 -24.624,-6.438 -31.694,-16.307 9.707,31.955 39.392,55.215 74.519,55.215 10.257,0 20.041,-2.002 29.009,-5.605 v -5.869 c -0.001,-20.704 -8.856,-39.37 -22.969,-52.434 z"
   style="opacity:0.2;fill:#222222"
   inkscape:connector-curvature="0" />

	</g>

	<g
   id="g312">
		<path
   id="path308"
   d="m 131.331,258.99 c -11.102,0 -20.103,9 -20.103,20.104 V 354.28 H 96.552 c -8.458,0 -15.313,6.857 -15.313,15.314 0,8.457 6.856,15.314 15.313,15.314 h 54.882 V 279.094 c 0,-11.104 -9.001,-20.104 -20.103,-20.104 z"
   style="fill:#ff9500"
   inkscape:connector-curvature="0" />

		<path
   id="path310"
   d="m 131.331,258.99 c -11.102,0 -20.103,9 -20.103,20.104 V 354.28 H 96.552 c -8.458,0 -15.313,6.857 -15.313,15.314 0,8.457 6.856,15.314 15.313,15.314 h 54.882 V 279.094 c 0,-11.104 -9.001,-20.104 -20.103,-20.104 z"
   style="opacity:0.2;fill:#222222"
   inkscape:connector-curvature="0" />

	</g>

	<path
   id="path314"
   d="M 184.919,178.164 H 132.888 V 384.908 H 318.337 V 311.582 C 318.336,237.897 258.603,178.164 184.919,178.164 Z"
   style="fill:#ff9500"
   inkscape:connector-curvature="0" />

	<path
   id="path316"
   d="M 184.919,178.164 H 132.888 V 384.908 H 318.337 V 311.582 C 318.336,237.897 258.603,178.164 184.919,178.164 Z"
   style="fill:#ff9500"
   inkscape:connector-curvature="0" />

	<path
   id="path318"
   d="M 184.919,178.164 H 132.888 V 384.908 H 318.337 V 311.582 C 318.336,237.897 258.603,178.164 184.919,178.164 Z"
   style="fill:#ff9500"
   inkscape:connector-curvature="0" />

	<path
   id="path320"
   d="m 265.985,262.395 c -33.83,0 -61.255,27.426 -61.255,61.258 0,11.16 3,21.615 8.215,30.627 h -12.058 c -8.458,0 -15.314,6.857 -15.314,15.314 0,8.457 6.856,15.314 15.314,15.314 h 126.354 v -61.256 c 0,-33.832 -27.425,-61.257 -61.256,-61.257 z"
   style="opacity:0.2;fill:#222222"
   inkscape:connector-curvature="0" />

	<path
   id="path322"
   d="m 161.06,258.99 c -11.103,0 -20.103,9 -20.103,20.104 v 75.186 h -8.069 v 30.629 h 48.275 V 279.094 C 181.162,267.99 172.162,258.99 161.06,258.99 Z"
   style="opacity:0.2;fill:#222222"
   inkscape:connector-curvature="0" />

	<g
   id="g354">
		<g
   id="g330">
			<path
   id="path324"
   d="m 132.394,102.213 c -4.433,2.82 -4.191,7 0.535,9.291 l 80.032,38.787 c 4.727,2.293 8.158,-0.109 7.625,-5.334 l -8.508,-83.305 c -0.533,-5.225 -4.597,-7.193 -9.028,-4.373 z"
   style="fill:#ff9500"
   inkscape:connector-curvature="0" />

			<polygon
   id="polygon326"
   points="162.09,106.436 198.971,124.311 195.009,85.502 "
   style="fill:#d8d2c4" />

			<path
   id="path328"
   d="m 203.05,57.279 -70.656,44.934 c -4.433,2.82 -4.191,7 0.535,9.291 l 40.016,19.395 36.081,-74.449 c -1.636,-0.794 -3.761,-0.583 -5.976,0.829 z"
   style="opacity:0.2;fill:#222222"
   inkscape:connector-curvature="0" />

		</g>

		<g
   id="g338">
			<path
   id="path332"
   d="m 109.819,102.213 c 4.433,2.82 4.191,7 -0.535,9.291 l -80.032,38.787 c -4.727,2.293 -8.158,-0.109 -7.625,-5.334 l 8.508,-83.305 c 0.533,-5.225 4.597,-7.193 9.028,-4.373 z"
   style="fill:#ff9500"
   inkscape:connector-curvature="0" />

			<polygon
   id="polygon334"
   points="80.123,106.436 43.242,124.311 47.204,85.502 "
   style="fill:#d8d2c4" />

			<path
   id="path336"
   d="m 33.187,56.449 c 0.001,0 0,0 0.002,-0.002 -1.638,0.793 -2.788,2.592 -3.054,5.205 l -8.508,83.305 c -0.533,5.225 2.898,7.627 7.625,5.334 l 40.016,-19.393 z"
   style="opacity:0.2;fill:#222222"
   inkscape:connector-curvature="0" />

		</g>

		<path
   id="path340"
   d="M 121.106,93.338 C 61.256,93.338 11.351,135.902 0,192.41 c 41.564,8.998 77.26,33.746 100.516,67.697 0.008,0.01 0.016,0.008 0.023,0.02 4.332,6.779 11.925,11.275 20.568,11.275 8.636,0 16.224,-4.49 20.558,-11.26 0.007,-0.012 0.013,-0.01 0.02,-0.018 C 164.94,226.165 200.64,201.409 242.212,192.409 230.861,135.902 180.956,93.338 121.106,93.338 Z"
   style="fill:#ff9500"
   inkscape:connector-curvature="0" />

		<path
   id="path342"
   d="M 44.218,120.184 C 21.875,137.975 5.838,163.348 0,192.41 c 41.564,8.998 77.26,33.746 100.516,67.697 0.008,0.01 0.016,0.008 0.023,0.02 1.284,2.01 2.859,3.811 4.658,5.361 0.098,-2.48 0.162,-4.969 0.162,-7.473 C 105.358,203.354 81.77,154.203 44.218,120.184 Z"
   style="fill:#d8d2c4"
   inkscape:connector-curvature="0" />

		<path
   id="path344"
   d="m 197.993,120.184 c 22.343,17.791 38.381,43.164 44.218,72.227 -41.564,8.998 -77.26,33.746 -100.516,67.697 -0.007,0.01 -0.015,0.008 -0.023,0.02 -1.283,2.01 -2.858,3.811 -4.657,5.361 -0.098,-2.48 -0.163,-4.969 -0.163,-7.473 0.001,-54.662 23.591,-103.813 61.141,-137.832 z"
   style="fill:#d8d2c4"
   inkscape:connector-curvature="0" />

		<path
   id="path346"
   d="m 85.471,241.281 c 5.457,5.893 10.492,12.18 15.044,18.826 0.008,0.01 0.016,0.008 0.023,0.02 4.332,6.779 11.925,11.275 20.568,11.275 8.636,0 16.224,-4.49 20.558,-11.26 0.007,-0.012 0.013,-0.01 0.02,-0.018 4.556,-6.652 9.595,-12.945 15.057,-18.844 h -71.27 z"
   style="fill:#333e48"
   inkscape:connector-curvature="0" />

		<path
   id="path348"
   d="m 0,192.41 c 41.564,8.998 77.26,33.746 100.516,67.697 0.008,0.01 0.016,0.008 0.023,0.02 4.332,6.779 11.925,11.275 20.568,11.275 V 93.338 C 61.256,93.338 11.351,135.902 0,192.41 Z"
   style="opacity:0.2;fill:#222222"
   inkscape:connector-curvature="0" />

		<circle
   id="circle350"
   r="7.4629998"
   cy="173.13699"
   cx="179.789"
   style="fill:#333e48" />

		<circle
   id="circle352"
   r="7.4629998"
   cy="173.13699"
   cx="62.424"
   style="fill:#333e48" />

	</g>

	<path
   id="path356"
   d="m 274.267,262.395 c -33.831,0 -61.255,27.426 -61.255,61.258 0,11.16 3,21.615 8.215,30.627 h -12.059 c -8.458,0 -15.313,6.857 -15.313,15.314 0,8.457 6.856,15.314 15.313,15.314 h 126.354 v -61.256 c 0.001,-33.832 -27.424,-61.257 -61.255,-61.257 z"
   style="fill:#ffa21f"
   inkscape:connector-curvature="0" />

	<path
   id="path358"
   d="m 169.341,258.99 c -11.102,0 -20.102,9 -20.102,20.104 V 354.28 H 133.54 c -8.457,0 -15.313,6.857 -15.313,15.314 0,8.457 6.856,15.314 15.313,15.314 h 55.903 V 279.094 c 10e-4,-11.104 -8.999,-20.104 -20.102,-20.104 z"
   style="fill:#ffa21f"
   inkscape:connector-curvature="0" />

</g>
    <g
       id="g461"
       transform="matrix(0.08921847,0,0,0.09880832,1.150414,201.25905)"
       inkscape:export-xdpi="600.05743"
       inkscape:export-ydpi="600.05743">
	<g
   id="g439">
		<path
   id="path435"
   d="m 312.27,394.41 h -39.882 l -27.32,-68.86 c -1.528,-3.85 -5.887,-5.735 -9.737,-4.205 -3.851,1.527 -5.733,5.887 -4.206,9.737 l 25.125,63.328 h -19.741 c -4.143,0 -7.5,3.358 -7.5,7.5 0,4.143 3.357,7.5 7.5,7.5 h 75.762 c 4.143,0 7.5,-3.357 7.5,-7.5 -0.001,-4.141 -3.359,-7.5 -7.501,-7.5 z"
   style="fill:#ffb819"
   inkscape:connector-curvature="0" />

		<path
   id="path437"
   d="m 245.067,325.55 c -1.528,-3.85 -5.887,-5.735 -9.737,-4.205 -3.851,1.527 -5.733,5.887 -4.206,9.737 l 5.826,14.686 c 4.798,-1.528 9.491,-3.268 14.074,-5.203 z"
   style="opacity:0.2;fill:#222222"
   inkscape:connector-curvature="0" />

	</g>

	<path
   id="path441"
   d="M 75.861,302.26 7.634,392.168 c 68.228,15.449 85.978,-53.537 95.38,-89.908 z"
   style="fill:#ff8189"
   inkscape:connector-curvature="0" />

	<path
   id="path443"
   d="m 306.212,0 c -30.958,0 -56.804,21.881 -62.928,51.02 -0.008,0.034 -0.02,0.063 -0.027,0.097 -5.091,20.153 -5.973,28.824 -10.938,36.631 -0.03,0.038 -0.061,0.074 -0.092,0.111 l -1.094,1.501 c -0.825,1.223 -1.618,2.302 -2.388,3.273 L 75.861,302.26 c 30.007,21.984 50.698,34.367 92.347,38.135 99.756,9.026 181.363,-64.178 181.363,-164.342 0,-9.393 -0.717,-18.619 -2.096,-27.628 h 0.006 c -0.008,-0.045 -0.019,-0.094 -0.026,-0.139 -0.138,-0.905 -0.293,-1.804 -0.444,-2.704 -1.506,-10.334 -1.335,-25.378 8.145,-39.579 1.539,-1.805 2.99,-3.685 4.326,-5.655 0.002,-0.002 0.006,-0.006 0.008,-0.009 v -0.001 C 366.454,90.06 370.523,77.661 370.523,64.311 370.522,28.793 341.728,0 306.212,0 Z"
   style="fill:#ff5959"
   inkscape:connector-curvature="0" />

	<path
   id="path445"
   d="m 364.618,46.249 c 10.838,0 31.997,14.45 37.158,29.418 h -50.578 z"
   style="fill:#ffd923"
   inkscape:connector-curvature="0" />

	<path
   id="path447"
   d="m 361.935,94.546 c 9.275,0 28.122,-6.07 32.539,-18.879 h -43.275 z"
   style="fill:#ffb819"
   inkscape:connector-curvature="0" />

	<path
   id="path449"
   d="m 349.503,171.324 c -0.008,-0.304 -0.017,-0.608 -0.025,-0.912 -0.157,-5.017 -0.516,-9.982 -1.07,-14.889 -66.848,0.625 -120.85,55.002 -120.85,122 0,19.584 4.631,38.08 12.833,54.479 57.244,-19.621 99.319,-69.203 107.662,-132.608 0.033,-0.259 0.069,-0.519 0.102,-0.779 0.156,-1.227 0.299,-2.46 0.429,-3.696 0.171,-1.654 0.333,-3.311 0.46,-4.978 0.04,-0.521 0.065,-1.046 0.099,-1.567 0.103,-1.527 0.19,-3.059 0.255,-4.597 0.024,-0.575 0.049,-1.152 0.066,-1.729 0.063,-1.991 0.109,-3.988 0.109,-5.996 -0.002,-1.581 -0.029,-3.157 -0.07,-4.728 z"
   style="fill:#ff8189"
   inkscape:connector-curvature="0" />

	<path
   id="path451"
   d="m 131.304,226.24 -55.442,76.02 c 30.007,21.984 50.698,34.367 92.347,38.135 82.156,7.434 151.993,-40.913 174.08,-114.154 H 131.304 Z"
   style="opacity:0.2;fill:#222222"
   inkscape:connector-curvature="0" />

	<path
   id="path453"
   d="m 281.958,394.41 h -39.883 l -27.319,-68.86 c -1.527,-3.85 -5.886,-5.735 -9.737,-4.205 -3.851,1.527 -5.733,5.887 -4.206,9.737 l 25.126,63.328 h -19.742 c -4.143,0 -7.5,3.358 -7.5,7.5 0,4.143 3.357,7.5 7.5,7.5 h 75.762 c 4.143,0 7.5,-3.357 7.5,-7.5 -10e-4,-4.141 -3.358,-7.5 -7.501,-7.5 z"
   style="fill:#ffd923"
   inkscape:connector-curvature="0" />

	<path
   id="path455"
   d="m 231.737,110.681 c -5.697,-0.313 -11.288,-0.028 -16.721,0.776 L 82.168,293.612 c 89.766,4.487 159.983,-3.166 194.808,-34.372 l -0.008,-0.008 c 18.764,-14.16 31.406,-36.171 32.793,-61.479 2.5,-45.59 -32.433,-84.573 -78.024,-87.072 z"
   style="opacity:0.3;fill:#222222"
   inkscape:connector-curvature="0" />

	<path
   id="path457"
   d="m 239.925,99.392 c -32.529,-1.783 -61.695,15.491 -76.644,42.099 l 0.003,0.003 c -14.861,27.501 -78.263,140.559 -78.263,140.559 92.323,5.062 164.629,-2.276 200.143,-34.101 l -0.008,-0.007 c 18.764,-14.16 31.405,-36.171 32.793,-61.479 2.499,-45.592 -32.432,-84.575 -78.024,-87.074 z"
   style="fill:#333e48"
   inkscape:connector-curvature="0" />

	<circle
   id="circle459"
   r="9.4119997"
   cy="54.43"
   cx="333.60699"
   style="fill:#333e48" />

</g>
  </g>
</svg>
